<svg id="Layer_1" data-name="Layer 1" xmlns="http://www.w3.org/2000/svg" viewBox="0 0 297.68 383.21"><defs><style>.cls-1{fill:#b2a57f;}.cls-2{fill:#d9d6ba;}.cls-3{fill:#605242;}.cls-4{fill:#d39d8f;}.cls-5{fill:#fff;}.cls-12,.cls-6{fill:none;}.cls-13,.cls-6{stroke:#000;stroke-miterlimit:10;}.cls-7{fill:#6e6955;}.cls-8{fill:#787059;}.cls-9{fill:#a56251;}.cls-10{fill:#887863;}.cls-11{fill:#c58e79;}.cls-13{fill:#cdd5c8;}</style></defs><title>amramask-04</title><path class="cls-1" d="M407.61,279.52c-4,1.81-5.26,10.37-2.79,12.58,1.16,1,2.47.06,4.89,1.4,1.86,1,2.87,2.59,4.55,5.24a35.88,35.88,0,0,1,2.44,4.54c4.69,10.54,4.47,12,6.64,14.33,2.49,2.65,7,5.21,9.44,3.85,3.88-2.14,1.33-13.15,1.05-14.33C429.93,290.89,414.16,276.54,407.61,279.52Z" transform="translate(-145.42 -214.82)"/><path class="cls-2" d="M201.05,219.05c-7.91.56-23.6,1.85-39.14,11.89a69.6,69.6,0,0,0-9.09,7c-9.63,39.1-8.22,67.53-4.89,86.68,1.07,6.19,2.44,11.94,5.59,29.35,6.27,34.72,5.75,39.07,9.09,56.63,4.81,25.34,11.54,60.73,32.85,93,4.18,6.33,6.94,9.53,15.38,22.36,14.72,22.42,16.13,27.6,25.86,39.15,7.31,8.68,13.58,16,24.47,22.37a77.15,77.15,0,0,0,34.25,10.48,74.61,74.61,0,0,0,34.25-6.29c15.25-6.82,23.73-17,32.86-28,11.33-13.61,10.51-17.4,28.66-43.34,9.4-13.43,9-11.51,15.38-21,10.56-15.63,21.36-31.61,27.26-52.43,2.82-9.94,3.51-25,4.89-55.22.74-16.17.35-19.38,1.4-37,1.28-21.52,2.17-21.84,2.8-37.74.64-16.23-.55-9.35-.7-43.34-.05-10.66,0-17.69-3.5-26.57a42.13,42.13,0,0,0-10.48-16.07c-7.33-6.72-15.84-8.82-26.57-10.49-25.21-3.92-43.34-2.8-43.34-2.8-24.76,1.54-14.32-1.94-72.7-2.79C264.87,214.55,243.6,216.05,201.05,219.05Z" transform="translate(-145.42 -214.82)"/><path class="cls-3" d="M265.36,335.79c.05-5.78-6.93-9.61-9.78-11.18-6.63-3.65-12.11-3.57-21.67-4.2-18.32-1.2-15.12-2.6-26.57-2.8-15.89-.27-24.66-.42-32.85,5.6a33.74,33.74,0,0,0-11.6,16.36c-1.57,4.81-2.14,10.49-1,10.9s3.53-3.59,7-9.09c3.09-4.92,3.36-6.09,5.36-7.69.7-.56,2.43-1.82,8.62-3.26a75.9,75.9,0,0,1,13.74-1.86c4.92-.24,8.91-.43,14,.46.82.15,1.56.35,2,.45A64,64,0,0,1,223,333c10.28,4.41,10.48,3.15,18.18,7,4.2,2.1,7.52,4.17,12.81,4.66,3.58.34,5.37-.29,6.53-.93A9.62,9.62,0,0,0,265.36,335.79Z" transform="translate(-145.42 -214.82)"/><path class="cls-4" d="M260.94,370c-.39-1.15-1.39-1.17-2.34-2.33-1.31-1.62-1.14-2.9-1.86-4.89-.55-1.55-1.69-2.89-4-5.59a48.74,48.74,0,0,0-5.83-6.06,47.86,47.86,0,0,0-10-6.53c-4.49-2.32-7.15-3.7-10.72-4.42-4.68-1-8.77,0-16.78,1.86-6.49,1.53-11.56,2.77-17.71,6.06-7,3.74-9.95,7.24-11.18,8.85-1.71,2.24-3.57,4.74-3.73,8.39,0,1.06-.09,5.59,3.26,8.62a10.4,10.4,0,0,0,4.66,2.33c2.85.75,6.13.53,6.29-.23.11-.52-1.3-.89-4-2.8-2.39-1.71-3.88-2.77-4.43-4.42-.79-2.41.82-4.91,1.4-5.83,2.09-3.27,4.53-3.46,12.12-7.45,4.05-2.14,3.88-2.36,9.55-5.36,4.26-2.26,6.38-3.38,7.69-3.73,4.49-1.2,8.3-.4,13.52.7a58.25,58.25,0,0,1,9.78,3c5.21,2,7.81,3,10.72,5.36a20.81,20.81,0,0,1,6.52,8.38c1.05,2.55,1.93,4.69,1.17,7-1,3.15-4.35,4.14-4,6.3a2.5,2.5,0,0,0,1.63,1.86c1.48.43,3-1.26,4.89-3.26a5.75,5.75,0,0,1,.63-.39,6.31,6.31,0,0,0,2.17-2.41A4.17,4.17,0,0,0,260.94,370Z" transform="translate(-145.42 -214.82)"/><path class="cls-5" d="M249.28,378.2c-1,.82-2.39,1.75-9.55,3.26-6.82,1.44-10.23,2.16-14.68,2.1-3.34-.05-6.34-.66-12.35-1.87-4.08-.82-7.54-1.79-14.44-3.73a32.81,32.81,0,0,1-5.6-1.86c-2.6-1.21-8-3.71-8.39-7.69-.21-2.25,1.28-4.06,2.34-5.36,2.39-2.93,4.77-3.26,11.41-6.29,6.07-2.76,5.41-3.09,9.56-4.66a40.51,40.51,0,0,1,10.71-2.8,36.18,36.18,0,0,1,11,.47,37.63,37.63,0,0,1,11.18,4.43,39.47,39.47,0,0,1,6.29,4.19,21.41,21.41,0,0,1,4.2,4.2,12.56,12.56,0,0,1,2.79,6.05C254.26,373.89,249.71,377.84,249.28,378.2Z" transform="translate(-145.42 -214.82)"/><path class="cls-6" d="M177.75,341.15c-.34.14,0,2.83,1.4,5.12.66,1.08,1.2,1.51,2.82,4,.35.55.48.76.91,1.39a20.17,20.17,0,0,0,2.32,3.1,11.64,11.64,0,0,0,1.87,1.56c2.48,1.75,5.87,3,6.15,2.55.37-.63-5.58-3.12-10.58-9.77C179.48,344.86,178.19,341,177.75,341.15Z" transform="translate(-145.42 -214.82)"/><path class="cls-6" d="M181,339.28c-.31.11.14,3.13,1.4,6.06a23.06,23.06,0,0,0,6.63,8.38c3,2.61,6.08,4.46,6.24,4.25s-5.63-3.57-10.07-10.53C182.43,343.09,181.39,339.16,181,339.28Z" transform="translate(-145.42 -214.82)"/><path class="cls-6" d="M185.21,337.42c-.38.1-.19,5.06,2.33,9.79,3.57,6.73,10.21,9.88,10.48,9.55s-4.82-3.32-8.85-10.25C186.25,341.49,185.56,337.33,185.21,337.42Z" transform="translate(-145.42 -214.82)"/><path class="cls-6" d="M188,338.12c-.22.12,1.2,3.6,3,6.76,3.89,6.7,9.06,11,9.34,10.77s-3.64-4.19-9.1-12.64C189.44,340.19,188.19,338,188,338.12Z" transform="translate(-145.42 -214.82)"/><path class="cls-6" d="M189.87,335.09c-.12.07.42,1.15,1.49,3.3.15.31,1.4,2.81,2.47,4.62,2.7,4.6,7.82,11,8.15,10.72s-2.1-3.79-6.29-10.25C194.14,341.08,190.14,334.92,189.87,335.09Z" transform="translate(-145.42 -214.82)"/><path class="cls-6" d="M194.29,332.76c-.3.07,0,3.21.7,6.06,0,0,.19.77.41,1.45,1.53,4.93,7.81,12.83,8.21,12.53s-2.86-3.44-5.82-10.25C195.38,337,194.66,332.68,194.29,332.76Z" transform="translate(-145.42 -214.82)"/><path class="cls-6" d="M196.86,331.83c-.27.08.6,4.67,2.56,9.55,2.44,6.07,5.79,10.64,6.06,10.49s-1.76-3.54-4.89-10.95C198.06,334.93,197.08,331.76,196.86,331.83Z" transform="translate(-145.42 -214.82)"/><path class="cls-6" d="M200.59,333.23c-.27.08,1,5.22,1.1,5.6.13.55.25,1,.29,1.15,1.18,4.35,5.73,10.93,6.06,10.72s-1.93-3-4.43-9.09C201.66,336.84,200.77,333.17,200.59,333.23Z" transform="translate(-145.42 -214.82)"/><path class="cls-6" d="M207.58,330c-.24,0-.72,4.42,0,9.32.87,6,3.23,10.58,3.49,10.49s-1.73-5-2.8-13.28C207.76,332.5,207.75,330,207.58,330Z" transform="translate(-145.42 -214.82)"/><path class="cls-6" d="M211.77,336.26c0-2.13.23-4.7.23-4.66,0,3,0,3.29,0,3.29a47.48,47.48,0,0,0,.23,4.86c.1,1,.18,1.4.7,4.19Q214.05,350,214,350A39.3,39.3,0,0,1,211.77,336.26Z" transform="translate(-145.42 -214.82)"/><path class="cls-6" d="M215,332.53a10.46,10.46,0,0,0-.92,4.1s0,.63,0,1.26c.14,3.63,2.86,11.59,2.89,11.58a20.62,20.62,0,0,1-2.89-11.58A43.54,43.54,0,0,1,215,332.53Z" transform="translate(-145.42 -214.82)"/><path class="cls-6" d="M217.13,333.93a26,26,0,0,0-.7,4,18.92,18.92,0,0,0,2.1,10.25,18.92,18.92,0,0,1-2.1-10.25A26,26,0,0,1,217.13,333.93Z" transform="translate(-145.42 -214.82)"/><path class="cls-6" d="M221.09,334.39a14.63,14.63,0,0,0-1.16,2.8,16,16,0,0,0-.7,4.91c0,.3,0,.88.09,1.62a14.36,14.36,0,0,0,1.07,4.42,13.2,13.2,0,0,1-1.16-6,36.93,36.93,0,0,1,1.79-7.5A1.25,1.25,0,0,0,221.09,334.39Z" transform="translate(-145.42 -214.82)"/><path class="cls-6" d="M223.19,336a6.51,6.51,0,0,0-1.17,1.87c-2.1,4.51.06,10.05.24,10s-.12-1.53-1.08-6.83A33.36,33.36,0,0,0,223.19,336Z" transform="translate(-145.42 -214.82)"/><path class="cls-6" d="M226.92,336.72c.75.31-2.77,11.08-3.27,10.95a40.27,40.27,0,0,1,.7-5.12,11.54,11.54,0,0,1,1-3.81C225.81,337.91,226.64,336.61,226.92,336.72Z" transform="translate(-145.42 -214.82)"/><path class="cls-6" d="M231.34,337.42c.22.07-.53,3.26-1.43,5.81-1.1,3.09-2.78,6.25-3,6.15C226.48,349.2,230.91,337.28,231.34,337.42Z" transform="translate(-145.42 -214.82)"/><path class="cls-6" d="M233.67,339.05c-.11,0-2.33,6.06-2.33,6.06h0s-.7,5-.55,5,.58-3.09,1.88-7.64C233.24,340.47,233.73,339.07,233.67,339.05Z" transform="translate(-145.42 -214.82)"/><path class="cls-6" d="M241.36,342.08s-.42.51-.75.93a31.82,31.82,0,0,0-2.74,4.2,28.38,28.38,0,0,0-2.07,4.65,29.62,29.62,0,0,1,3-6.23C240,343.77,241.38,342.1,241.36,342.08Z" transform="translate(-145.42 -214.82)"/><path class="cls-6" d="M236.7,340.22a18.29,18.29,0,0,0-1.74,3.41,25.41,25.41,0,0,0-2,7.13c.07,0,.47-1.87,1.65-5.18S236.78,340.25,236.7,340.22Z" transform="translate(-145.42 -214.82)"/><path class="cls-6" d="M244.39,343.71s-1.63,2.66-3.26,5.59c-.31.56-1.21,2.19-1.19,2.2S244.43,343.74,244.39,343.71Z" transform="translate(-145.42 -214.82)"/><path class="cls-6" d="M247,344.64c-.32-.14-5.54,10.11-5.2,10.31s2.6-3.33,4.27-7.51A15,15,0,0,0,247,344.64Z" transform="translate(-145.42 -214.82)"/><path class="cls-6" d="M250.45,347,244,356.38Z" transform="translate(-145.42 -214.82)"/><path class="cls-6" d="M253.71,349.54c-.1-.1-8.19,7.87-8.08,8a58.34,58.34,0,0,0,6-5.66C252.14,351.31,253.76,349.58,253.71,349.54Z" transform="translate(-145.42 -214.82)"/><path class="cls-6" d="M256.27,352.1c-.11-.13-8.39,7.22-8.27,7.36a45.34,45.34,0,0,0,5.25-4.33A38.31,38.31,0,0,0,256.27,352.1Z" transform="translate(-145.42 -214.82)"/><path class="cls-7" d="M275.38,459.75c.1-1.62-2.9-3-3.73-2.33s-.18,3.92,1.4,4.19A2.25,2.25,0,0,0,275.38,459.75Z" transform="translate(-145.42 -214.82)"/><path class="cls-8" d="M315.46,458.82c-.68-.55-2.48.52-3.5,1.63-.52.57-1.58,2-1.16,2.56s3,.38,4.19-1.16C315.75,460.86,316,459.28,315.46,458.82Z" transform="translate(-145.42 -214.82)"/><path class="cls-6" d="M249.28,378.2c-.68.43,9,18.07,9.79,17.71.43-.21-1.7-6.23-5.13-11.65C252.3,381.65,249.61,378,249.28,378.2Z" transform="translate(-145.42 -214.82)"/><path class="cls-6" d="M247.65,381.23c-.17.08.6,1.8,2.53,7.47,2.5,7.35,3.27,10.53,3.53,10.47s-.14-4-1.4-8.16C250.64,385.49,247.94,381.1,247.65,381.23Z" transform="translate(-145.42 -214.82)"/><path class="cls-6" d="M250.22,396.6s-4.94-16.51-4.89-16.52,1.81,5.79,3.63,12.09C249,392.41,250.24,396.6,250.22,396.6Z" transform="translate(-145.42 -214.82)"/><path class="cls-6" d="M243.09,380.69c.24-.06,6,20.27,5.73,20.34a105.93,105.93,0,0,1-3.26-10.25C244.26,386.17,243,380.72,243.09,380.69Z" transform="translate(-145.42 -214.82)"/><path class="cls-6" d="M239.73,381.46c.41-.11,7.39,23.41,7,23.53-.2.07-2.39-6-4-11.18C241,388.06,239.52,381.52,239.73,381.46Z" transform="translate(-145.42 -214.82)"/><path class="cls-6" d="M237.68,381.89c.65-.14,6.89,24.08,6.25,24.27-.34.1-2.7-6.37-4.2-12.35C238.38,388.44,237.34,382,237.68,381.89Z" transform="translate(-145.42 -214.82)"/><path class="cls-6" d="M235.54,383.79c.35,0,.82,5.47,3,14,1.79,6.92,3.27,10.16,3,10.25s-4.11-6.29-5.6-14.68C235.13,388.42,235.21,383.83,235.54,383.79Z" transform="translate(-145.42 -214.82)"/><path class="cls-6" d="M233,384.26c.31,0-.27,5.11.94,12.34,1.12,6.7,3.5,10.62,3.26,10.72s-3.9-5.16-4.9-12.35C231.47,389.16,232.67,384.24,233,384.26Z" transform="translate(-145.42 -214.82)"/><path class="cls-6" d="M230.18,384.72a39.78,39.78,0,0,0,.23,11.19A35.67,35.67,0,0,0,234.6,408a39,39,0,0,1-4.41-13.82A37.28,37.28,0,0,1,230.18,384.72Z" transform="translate(-145.42 -214.82)"/><path class="cls-6" d="M227.15,384.72c.4,0-.09,6.45,1.16,13.28,1.21,6.56,3.46,10.41,3.27,10.49s-3.43-6-4.9-13.28a27.3,27.3,0,0,1,.26-10C227,385.11,227.05,384.72,227.15,384.72Z" transform="translate(-145.42 -214.82)"/><path class="cls-6" d="M225.05,383.56c.19,0-.68,4.36-.23,10.71a36.71,36.71,0,0,0,1.4,8.16,26.67,26.67,0,0,0,2.56,6.06,32,32,0,0,1-5.13-15.61C223.46,387.69,224.87,383.53,225.05,383.56Z" transform="translate(-145.42 -214.82)"/><path class="cls-6" d="M221.79,384.49c.22,0-.91,3.86-.93,9.55,0,7.94,2.13,13.21,1.86,13.28s-3-5.23-3-12.11C219.63,389.26,221.54,384.44,221.79,384.49Z" transform="translate(-145.42 -214.82)"/><path class="cls-6" d="M219.23,384.26c.36.1-1.3,5-1.63,10-.51,7.52,2.13,12.74,1.86,12.82s-2.81-5.22-3-11.88A24.9,24.9,0,0,1,218.75,385C218.88,384.7,219.11,384.22,219.23,384.26Z" transform="translate(-145.42 -214.82)"/><path class="cls-6" d="M217,382.54c-.39-.1-2,3.85-2.86,8-1.69,7.86-.6,15.05-.06,15.06s.33-4.08,1.92-15.06C216.73,385.29,217.27,382.61,217,382.54Z" transform="translate(-145.42 -214.82)"/><path class="cls-6" d="M213.17,383.56c.22.07-1.25,4.07-2.33,10.48-1.13,6.69-1,10.72-1.17,10.72s-1-5.95.47-12.82C211.16,387.24,213,383.49,213.17,383.56Z" transform="translate(-145.42 -214.82)"/><path class="cls-6" d="M212.7,381.69c.32.24-3.74,4.38-5.59,11.19a28.76,28.76,0,0,0-.7,10.72c-.23,0-2.57-8.38,1.17-15.85C209.5,383.9,212.44,381.5,212.7,381.69Z" transform="translate(-145.42 -214.82)"/><path class="cls-6" d="M200.59,388.68" transform="translate(-145.42 -214.82)"/><path class="cls-6" d="M210.28,381.17a28.68,28.68,0,0,0-6.2,21,28.68,28.68,0,0,1,6.2-21Z" transform="translate(-145.42 -214.82)"/><path class="cls-6" d="M200.12,399.17c.26,0,.19-4.5,2.56-10.95,1.78-4.83,3.87-7.89,3.64-8s-2.49,2.49-4.1,5.93C199.16,392.64,199.81,399.14,200.12,399.17Z" transform="translate(-145.42 -214.82)"/><path class="cls-6" d="M203.37,379.39c.26.15-2.53,4.15-4.65,10.69-1.5,4.63-1.68,7.48-1.86,7.46s-.4-5.89,2.33-11.89C200.87,382,203.16,379.26,203.37,379.39Z" transform="translate(-145.42 -214.82)"/><path class="cls-6" d="M199,379.83c.28.13-.91,2.62-2.33,7.22-1.82,5.93-2,8.89-2.33,8.86s-.74-5.37,1.4-10.72C196.89,382.2,198.67,379.69,199,379.83Z" transform="translate(-145.42 -214.82)"/><path class="cls-6" d="M196.2,377.37a37.94,37.94,0,0,0-3.67,7.47,32.64,32.64,0,0,0-2,9.2,35.94,35.94,0,0,1,2.56-10.72A34.09,34.09,0,0,1,196.2,377.37Z" transform="translate(-145.42 -214.82)"/><path class="cls-9" d="M247.19,515.44c.17-.45,1.64,0,4.89,0,2.81,0,4.21,0,5.59-.7,2.22-1.09,1.92-2.51,4.2-3.49,1.77-.77,2.26,0,4.19-.7,2.35-.81,2.29-2.11,4.89-3.85.74-.49,3.93-2.63,7.34-2.1,2.09.33,3.32,1.51,4.55,2.45,2.35,1.8,6.11,3.8,12.23,4.54a20.17,20.17,0,0,1,4.89-3.14c2.64-1.19,3.23-.74,6-1.75,5-1.85,6.28-4.59,8.38-3.84,1.37.48,1.17,1.77,3.15,2.79,1.55.81,2.58.49,4.19.7,4.58.6,8,4.69,7.69,5.24s-3.49-.69-3.49-.69h0a22.45,22.45,0,0,1,9.43,1.39c3.18,1.36,4.38,3.32,7,3.85a10.85,10.85,0,0,0,3.86.17c.58-.12,1-.26,1-.17.13.26-2.86,1.76-5.24,3.49-2.81,2-4.13,3.94-6.3,6.64a80.83,80.83,0,0,1-9.43,10.49,40.55,40.55,0,0,1-15.38,8,49.39,49.39,0,0,1-12.58,2.1c-4.25.15-13.61.39-23.42-4.9a31.73,31.73,0,0,1-10.14-7.69c-2.56-3-2.92-4.86-7-9.43a40.61,40.61,0,0,0-5.24-5.25C249.41,517.19,247,516,247.19,515.44Z" transform="translate(-145.42 -214.82)"/><path class="cls-10" d="M330.2,322c-2.73,2.21-3.45,4-3.67,4.72-.64,1.89-.37,3.59.17,7,.59,3.67,1.36,4.53,1.75,4.9a5.82,5.82,0,0,0,3.49,1.39c3.54.39,6.21-1.38,8.92-2.79,4.5-2.36,4.65-1.44,10.83-4,9.53-4,9.88-6.47,20.8-12.06A104.21,104.21,0,0,1,387.17,315c6.32-2.17,9.91-2.82,13.45-3,3.23-.13,6-.22,9.09,1.05s4.61,3.1,8.56,7.17c2.24,2.29,5.53,5.57,9.79,9.43a14.53,14.53,0,0,0,.7-6.11c-.32-3.09-1.58-5.17-3.15-7.69a42.53,42.53,0,0,0-8.38-9.44c-2-1.84-3.82-3.25-5.07-4.19-2.6-.11-6.4-.21-11-.18a69.68,69.68,0,0,0-10.66.53c-4.8.75-7.05,2.11-12.23,4.19-5.67,2.27-10.77,3.61-21,6.29-5.42,1.43-10.76,3.23-16.25,4.37C338.41,318,334.14,318.8,330.2,322Z" transform="translate(-145.42 -214.82)"/><path class="cls-11" d="M328.1,374.59a52.53,52.53,0,0,1-3.84-4.2,12.55,12.55,0,0,1-1.4-8c.39-2.57,1.49-4.31,3.67-7.69,2.84-4.4,4.26-6.6,6.11-7.86,4-2.69,6.19-.58,13.81-2.27,2.88-.64,2.26-.88,12.41-4.9,6.88-2.72,10.32-4.08,13.1-4.71,4.15-.94,9.18-2.08,15.38-.7a23.43,23.43,0,0,1,12.59,6.64,24.49,24.49,0,0,1,5.41,10.31c.94,3,1.7,5.61,1.05,8.91a15.5,15.5,0,0,1-3.49,7,8.43,8.43,0,0,1-3.32,2.8c-2.3.95-5.25.66-5.6-.35-.26-.77,1.17-1.43,3.85-4.55,1.77-2.06,2.66-3.09,3-4.37.73-3-1.34-5.92-2.1-7-.62-.86-2.16-2.78-6.11-4.71-2.69-1.32-5.21-2-11.36-3-6.41-1-9.62-1.51-13.11-1.58a69.15,69.15,0,0,0-14.86,1.4c-6.83,1.26-10.25,1.88-14.15,4.37a29.9,29.9,0,0,0-7.17,6.64c-2.19,2.64-4.17,5.09-4.71,8.74-.23,1.5-.62,4.17.87,5.59,1.29,1.22,2.72.77,4.54,2.1a7.33,7.33,0,0,1,2.62,4,4.94,4.94,0,0,1-3,.52C331,377.52,330.15,376.74,328.1,374.59Z" transform="translate(-145.42 -214.82)"/><path class="cls-5" d="M341.56,352a29.21,29.21,0,0,0-5.95,2.27,17.11,17.11,0,0,0-6.46,8.39c-1.11,2.63-2,4.77-1,6.47.81,1.42,2.19,1.25,4.72,3,2.24,1.53,2.87,2.84,4.19,4.19,2.42,2.47,5.27,3.17,10.49,4.37a49,49,0,0,0,26.12-.34A43.94,43.94,0,0,0,383.5,376a16.12,16.12,0,0,0,3.31-2.78s.07-.08.41-.38c1.47-1.37,5.42-4.47,6.76-5.57,3.53-2.92,5.32-4.37,5.6-6.65a7.55,7.55,0,0,0-1.58-5.06c-2-2.91-5.2-4.57-11.71-6.12a77.39,77.39,0,0,0-20.44-2.1,85.41,85.41,0,0,0-15.21,2.1C347.24,350.21,344.72,351,341.56,352Z" transform="translate(-145.42 -214.82)"/><path class="cls-6" d="M328.62,345.05c-.23.17,1,3.07,3.67,5.42a15.72,15.72,0,0,0,1.58,1.22c1.63,1.12,3.45,1.93,3.55,1.75s-1.66-1.17-3.9-3.15C330.16,347.34,328.83,344.91,328.62,345.05Z" transform="translate(-145.42 -214.82)"/><path class="cls-12" d="M332.29,341.21" transform="translate(-145.42 -214.82)"/><path class="cls-6" d="M332.29,342.08c-.21.13,1.17,3.57,4,6.64,2.08,2.23,4.42,3.71,4.56,3.54s-1.46-1.49-3.86-4.24C333.76,344.3,332.48,342,332.29,342.08Z" transform="translate(-145.42 -214.82)"/><path class="cls-6" d="M338.06,342.6c-.6-1.22-1.51-2.33-1.7-2.23s1,3.45,2.75,6.43a35.34,35.34,0,0,0,3.53,4.89,9,9,0,0,1-3.53-4.89C338.69,345.29,338.92,344.33,338.06,342.6Z" transform="translate(-145.42 -214.82)"/><path class="cls-6" d="M340.16,338.76c-.28.1.74,4,2.27,7.69.76,1.83,2.08,4.67,2.33,4.57s-.92-4.27-2.5-8.07C342.1,342.59,340.45,338.65,340.16,338.76Z" transform="translate(-145.42 -214.82)"/><path class="cls-6" d="M343.65,336.84c-.2.05.35,3.22,1.23,6.29,1,3.69,2.51,7.13,2.74,7.06s-1.26-5.37-2-7.93C345.15,340.87,343.89,336.78,343.65,336.84Z" transform="translate(-145.42 -214.82)"/><path class="cls-6" d="M347.67,336.31c-.19,0,.06,2.73.53,5.25.78,4.18,2.2,7.93,2.44,7.86S349.2,342,348.72,340C347.85,336.37,347.71,336.31,347.67,336.31Z" transform="translate(-145.42 -214.82)"/><path class="cls-6" d="M350.47,335.44c-.15.05.27,1.37.79,4,.38,1.89.58,3.35.78,4.77.53,3.75.46,4.81.58,4.81.28,0,1.28-5.18-.58-10.4A9.56,9.56,0,0,0,350.47,335.44Z" transform="translate(-145.42 -214.82)"/><path class="cls-6" d="M353.79,333.34c-.12,0,.36,2.13.7,5.77.53,5.76.14,9.45.31,9.46s.79-3.4.53-7.52A24.14,24.14,0,0,0,353.79,333.34Z" transform="translate(-145.42 -214.82)"/><path class="cls-6" d="M357.81,331.94c-.31,0,.14,16.08.44,16.08a47.1,47.1,0,0,0,.26-6.64A54.35,54.35,0,0,0,357.81,331.94Z" transform="translate(-145.42 -214.82)"/><path class="cls-6" d="M360.43,335.44s0,2.82-.07,5.57c0,3.45-.07,6.76-.07,6.76Z" transform="translate(-145.42 -214.82)"/><path class="cls-6" d="M362.7,333.69c-.32,0-.57,4.12-.52,7.52,0,2.59.26,6.31.57,6.31s.67-3.62.65-7C363.38,337.28,363,333.69,362.7,333.69Z" transform="translate(-145.42 -214.82)"/><path class="cls-6" d="M366.2,333c-.16,0-.05,2.05-.18,7.34-.12,5.12-.32,7-.17,7s1-3.38,1-7.34C367,336.25,366.4,333,366.2,333Z" transform="translate(-145.42 -214.82)"/><path class="cls-6" d="M370.39,336.66c-.25,0,.31,2.65-.35,6.64-.36,2.18-.84,3.35-.7,3.4s1.64-2.16,1.92-5S370.63,336.63,370.39,336.66Z" transform="translate(-145.42 -214.82)"/><path class="cls-6" d="M373.19,331.6c-.22,0,.09,3-.35,8.38-.39,4.75-1,7.35-.85,7.39s1.54-3.37,1.9-7.56C374.26,335.36,373.43,331.58,373.19,331.6Z" transform="translate(-145.42 -214.82)"/><path class="cls-6" d="M374.76,328.27c-.27.05.87,4.33.52,11-.25,5-1.19,8.2-1,8.25s1.95-4,2.2-8.94C376.79,332.87,375,328.23,374.76,328.27Z" transform="translate(-145.42 -214.82)"/><path class="cls-6" d="M378.08,329.67a34.83,34.83,0,0,1,0,9.44c-.09.58-.2,1.22-.33,1.95-.82,4.51-1.47,6.63-1.36,6.66a20.73,20.73,0,0,0,2.39-7.56A23.26,23.26,0,0,0,378.08,329.67Z" transform="translate(-145.42 -214.82)"/><path class="cls-6" d="M384.2,327.93A75.8,75.8,0,0,1,382,338.45c-.49,1.57-1,2.83-1.07,3.11-1.52,4-2.94,6.31-2.86,6.36a26,26,0,0,0,4.6-8.29C384.84,333.42,384.37,327.94,384.2,327.93Z" transform="translate(-145.42 -214.82)"/><path class="cls-6" d="M380.52,348.28A27.39,27.39,0,0,0,384.88,338a28.82,28.82,0,0,0,.37-9,20,20,0,0,1,0,11A19.23,19.23,0,0,1,380.52,348.28Z" transform="translate(-145.42 -214.82)"/><path class="cls-6" d="M387.87,329c-.3,0,1.82,6.25-.7,13.11a24.29,24.29,0,0,1-4,6.68c.13.09,4.33-3.49,5.71-9.13S388.13,328.94,387.87,329Z" transform="translate(-145.42 -214.82)"/><path class="cls-6" d="M391.54,329.5c-.23,0,1.19,5.1-.88,10.83a21.74,21.74,0,0,1-6.18,8.68c.12.12,5.56-3.23,7.41-9.55C393.42,334.23,391.75,329.48,391.54,329.5Z" transform="translate(-145.42 -214.82)"/><path class="cls-6" d="M395.38,331.25a19.17,19.17,0,0,1-2.27,10.83c-1.45,2.59-9.08,6.47-6.12,6.47,2.49,0,3.7-2.16,6.12-6.47A19.17,19.17,0,0,0,395.38,331.25Z" transform="translate(-145.42 -214.82)"/><path class="cls-6" d="M397.48,332.47a23.38,23.38,0,0,1-3,10.48c-2.62,4.49-6.25,6.83-6.09,7s3.21-1.47,5.56-4.56C398.31,339.73,397.65,332.49,397.48,332.47Z" transform="translate(-145.42 -214.82)"/><path class="cls-6" d="M399.93,334.92c-.31-.05-.2,4.85-3.33,10a25.9,25.9,0,0,1-5.36,6c.15.17,5-2.25,7.46-7.37C400.73,339.23,400.21,335,399.93,334.92Z" transform="translate(-145.42 -214.82)"/><path class="cls-6" d="M402.37,336.31c-.2,0,.51,5.83-3.32,10.31-2.55,3-5.89,3.95-5.77,4.2s3.6-.35,6.12-2.8C403.83,343.72,402.59,336.34,402.37,336.31Z" transform="translate(-145.42 -214.82)"/><path class="cls-6" d="M405.69,338.94c-.39-.07-.22,5.56-4.37,9.78-2.95,3-6.44,3.6-6.32,3.92s5,.14,8.07-3C407,345.58,406.11,339,405.69,338.94Z" transform="translate(-145.42 -214.82)"/><path class="cls-6" d="M409.89,343.48c-.27-.14-2.15,6.61-8,9.09a16.64,16.64,0,0,1-5.56,1,11.37,11.37,0,0,0,7.65-1C409,349.88,410.14,343.61,409.89,343.48Z" transform="translate(-145.42 -214.82)"/><path class="cls-6" d="M410.41,348c-.22-.15-2.29,3.28-6.12,5.59a5.82,5.82,0,0,1-.51.3,14.11,14.11,0,0,1-5.78,1.63,9.7,9.7,0,0,0,6.29-.7,12.12,12.12,0,0,0,4.9-4.37A6.38,6.38,0,0,0,410.41,348Z" transform="translate(-145.42 -214.82)"/><path class="cls-6" d="M412.16,351.34c-.15-.15-4.3,3.54-7.87,4.72-.49.17-1,.3-1,.3a28.33,28.33,0,0,1-4.39.74,10.64,10.64,0,0,0,5.9,0C409.67,355.82,412.29,351.49,412.16,351.34Z" transform="translate(-145.42 -214.82)"/><path class="cls-6" d="M337,376.33c-.15-.14-2.87,2.11-5.41,5.25-3.27,4-5.09,8.09-4.9,8.21s1.66-2.54,5.24-7.17C335.12,378.52,337.15,376.46,337,376.33Z" transform="translate(-145.42 -214.82)"/><path class="cls-6" d="M329.85,394.51c-.33-.08.24-5.89,3.14-10.66l.05-.08,0,0c.05-.07,5.3-6.29,5.63-6s-2.31,2.43-4.83,6.82C330.6,390.22,330.16,394.58,329.85,394.51Z" transform="translate(-145.42 -214.82)"/><path class="cls-6" d="M340.51,378.71c-.2-.16-3.45,2.8-5.77,7.06-3.38,6.23-3.28,12.52-3,12.58s.71-5.94,4.72-13.28C338.58,381.23,340.67,378.84,340.51,378.71Z" transform="translate(-145.42 -214.82)"/><path class="cls-6" d="M341.21,380c-.23-.07-2,4.47-3.15,7.87-1.33,3.84-2.85,8.83-2.62,8.91s2.06-4.34,3.49-8.56C340.24,384.37,341.42,380.07,341.21,380Z" transform="translate(-145.42 -214.82)"/><path class="cls-6" d="M336.84,399.23c-.15-.06,1.32-3.37,3.32-10,1.8-6,2.57-9.75,2.73-9.72a34.71,34.71,0,0,1-1.33,7.62C339.79,394,337,399.3,336.84,399.23Z" transform="translate(-145.42 -214.82)"/><path class="cls-6" d="M344.7,380c-.11,0-.39,2.56-1.22,6.78a74.9,74.9,0,0,1-1.92,8,43.28,43.28,0,0,1-3.5,8.21,42.06,42.06,0,0,0,5.94-15.2A34.49,34.49,0,0,0,344.7,380Z" transform="translate(-145.42 -214.82)"/><path class="cls-6" d="M347.5,380.7c-.2,0-.7,5-2.45,12.06-2.1,8.5-4.37,13.39-4.19,13.46s3.78-6.6,5.59-15.56C347.52,385.38,347.69,380.73,347.5,380.7Z" transform="translate(-145.42 -214.82)"/><path class="cls-6" d="M348.9,381c-.23,0,.11,2.58-.18,6-.62,7.37-3.63,11.91-3.32,12.06s4.18-4.59,4.54-11C350.15,384.37,349.17,381,348.9,381Z" transform="translate(-145.42 -214.82)"/><path class="cls-6" d="M350.67,381.39c-.28,0,.47,5.87-1.07,13.47a52.9,52.9,0,0,1-4.37,12.41c.22.1,5.28-7,6.11-16.61C351.78,385.61,350.92,381.38,350.67,381.39Z" transform="translate(-145.42 -214.82)"/><path class="cls-6" d="M353.79,391c-.7,8.18-4.71,14.06-4.89,14a35.2,35.2,0,0,0,4-13.8c.39-5.36-.63-9.36-.19-9.44s1.94,3.84,2.46,8.21c1,8.29-1.87,15.66-2.45,15.56-.88-.16,2.58-23.43,2.49-23.44A52.84,52.84,0,0,0,353.79,391Z" transform="translate(-145.42 -214.82)"/><path class="cls-6" d="M356.22,382.17c-.34.09,2.34,6.12,1.41,14.26-.78,6.91-3.7,11.26-3.49,11.36S359,402,359.21,394C359.41,387.31,356.54,382.08,356.22,382.17Z" transform="translate(-145.42 -214.82)"/><path class="cls-12" d="M359.73,383.32" transform="translate(-145.42 -214.82)"/><path class="cls-6" d="M359.21,382.32c-.23.05.65,3.59,1.05,7.64,1.07,11-2.09,18.62-1.75,18.7s4.48-8.43,3-18.52C360.88,386.14,359.45,382.26,359.21,382.32Z" transform="translate(-145.42 -214.82)"/><path class="cls-6" d="M361.12,382.3a39.23,39.23,0,0,1,3,11.51,35.43,35.43,0,0,1-1.57,14.85,37.67,37.67,0,0,0,1.4-16.33A36.24,36.24,0,0,0,361.12,382.3Z" transform="translate(-145.42 -214.82)"/><path class="cls-6" d="M363.6,382.17c-.19,0,1.28,5.21,1.9,12.86a114.29,114.29,0,0,1,.17,11.89c.19,0,1.37-6.63.35-14.68C365.31,386.6,363.77,382.13,363.6,382.17Z" transform="translate(-145.42 -214.82)"/><path class="cls-6" d="M365.29,382c-.19.08,1.84,4.14,3.18,10.05a58.06,58.06,0,0,1,1.22,14c.24,0,1.7-7.34-.7-15.73C367.65,385.61,365.48,381.93,365.29,382Z" transform="translate(-145.42 -214.82)"/><path class="cls-6" d="M367.56,381.72c-.23.11,2.24,4.35,3.88,10.69,2,7.9,1.34,13.46,1.57,13.46s1.75-7.78-1.22-16.26C370.2,385.09,367.78,381.61,367.56,381.72Z" transform="translate(-145.42 -214.82)"/><path class="cls-6" d="M370.55,381.15c-.51.34,3.08,5.07,4.73,12.13s.29,11.87.53,11.89,3.77-11.52-1.57-20.1C372.79,382.75,370.89,380.94,370.55,381.15Z" transform="translate(-145.42 -214.82)"/><path class="cls-6" d="M379.65,404.29a30,30,0,0,0-1-13.45c-1.89-6-5.3-10.26-5-10.48s1.92,1.63,3.24,3.66C382.56,392.81,379.85,404.3,379.65,404.29Z" transform="translate(-145.42 -214.82)"/><path class="cls-6" d="M375.65,379.69c-.34.27,4.53,5.06,6.45,12.9a28.55,28.55,0,0,1,.7,8.38c.19,0,1.91-8.17-1.92-15.37C378.82,381.74,375.89,379.5,375.65,379.69Z" transform="translate(-145.42 -214.82)"/><path class="cls-6" d="M378.15,378.71c-.26.26,2.59,2.87,4.47,6.19,4.15,7.29,1.92,15,2.63,15s2.84-5.41,1.22-11a18.26,18.26,0,0,0-5.59-8.22C379.84,379.74,378.34,378.53,378.15,378.71Z" transform="translate(-145.42 -214.82)"/><path class="cls-6" d="M380.41,377.67a39.8,39.8,0,0,1,4.49,4.26c5.87,7,5.12,15.93,5.41,15.9s1.51-7.85-3.14-14.33A18.42,18.42,0,0,0,380.41,377.67Z" transform="translate(-145.42 -214.82)"/><path class="cls-6" d="M382.68,376.47c-.11.2,3.92,1.56,7.28,5.46,4.5,5.19,4.66,11.24,4.9,11.18s.45-6.88-4-11.88C387.46,377.45,382.79,376.25,382.68,376.47Z" transform="translate(-145.42 -214.82)"/><path class="cls-6" d="M385.4,374.55c-.15.23,4.31,2.28,8.58,7.2,4.09,4.7,5.39,9,5.6,8.91s-1.1-6-5.77-10.83C390,375.93,385.54,374.33,385.4,374.55Z" transform="translate(-145.42 -214.82)"/><path class="cls-6" d="M394,377.38a28.39,28.39,0,0,1,4,4c2.92,3.6,4.41,7.39,4.2,7.52s-2.11-4.26-6.64-9.09c-4.33-4.61-8.46-6.85-8.34-7S390.62,374.51,394,377.38Z" transform="translate(-145.42 -214.82)"/><path class="cls-6" d="M388.72,371.52c-.16.34,4.56,2.07,8.76,5.86,4.61,4.17,6.22,8.7,6.46,8.56s-1.12-4.41-4.54-8.21a22.26,22.26,0,0,0-8.44-5.65C390.73,372,388.82,371.3,388.72,371.52Z" transform="translate(-145.42 -214.82)"/><path class="cls-6" d="M390,370.49a20.35,20.35,0,0,1,9.26,2.35c5.55,3.14,7.61,8.54,7.86,8.39s-1.23-5.27-5.77-8.39C396.19,369.31,390,370.3,390,370.49Z" transform="translate(-145.42 -214.82)"/><path class="cls-13" d="M165.05,328.1" transform="translate(-145.42 -214.82)"/></svg>