<svg id="biplane02_Image" data-name="biplane02 Image" xmlns="http://www.w3.org/2000/svg" viewBox="0 0 480.39 401.15"><defs><style>.cls-1{fill:#999;}.cls-2{fill:#ccc;}.cls-3{fill:#699;}.cls-4{fill:#9cf;}.cls-5{fill:#69f;}</style></defs><title>biplane02-01</title><path class="cls-1" d="M224,117c-19.71,6.28-41.35,1.69-62,3-47.86,3-41.72.62-58,3-14,2.06-25.72,4.9-38,3-4.22-.65-8.51-.72-17.11-.86-6.67-.1-9.35.13-11.89,1.86-3.37,2.3-4.48,5.85-6,11-.71,2.39-2.55,9.25-2,20,.45,8.73.69,13.34,4,18a22.83,22.83,0,0,0,11,8,241.77,241.77,0,0,0,32,4,267.22,267.22,0,0,0,29,0c10.65-.49,12.61-1.12,27-2,3.12-.19,13.24-.8,24-1,22.71-.42,27.35,1.37,42,1a175.33,175.33,0,0,0,37-5c-.12-13.58.46-24.55,1-32,1.31-18.07,3.35-28.45-2-32C230.65,114.78,226.05,116.35,224,117Z" transform="translate(-28.9 -30.93)"/><path class="cls-2" d="M252.6,82.22c-2.67.6-10.77,2.42-15,9.08-2.86,4.47-2.41,8.63-2.1,17.48.59,17.09-.95,5.13,0,28.19.35,8.63,1,19.95,2.1,33.32-.17,6.62-.23,16.59.43,28.71.71,13,1.81,20.35,3.53,35.6.95,8.42,2.89,25.78,4.42,46.49,1,13.5,2,30.27,2.45,49.63q-.69,2.63-1.4,5.24c-1.7,1.08-4.24,2.66-7.34,4.55-3.68,2.24-11.51,7-21,12.23-8.36,4.62-16.11,10.4-24.81,14.33-1.82.82-6.93,3.06-8.39,7.69a6.57,6.57,0,0,0,0,4.54c1,2.31,3.49,3.34,7.69,4.55a111.72,111.72,0,0,0,12.93,2.79c6.73,1.22,6.25,2.27,14,4.2,8.54,2.13,19.1,3.34,28.66,6.29a9.16,9.16,0,0,1,4.89,3.14c1.49,2,1.5,4.25,1.4,7.69-.32,11.68-1.18,14.48.7,18.18a10.86,10.86,0,0,0,3.5,4.19c2.39,1.66,4.89,1.72,9.78,1.75,4.32,0,6.71,0,9.44-1.4a8.48,8.48,0,0,0,4.19-3.84,8,8,0,0,0,.35-5.59,67.58,67.58,0,0,0,0-16.78c-.31-2.37-.81-5,.7-7.34,1.26-1.94,3.3-2.72,7-3.85a96,96,0,0,1,12.24-3.14c4.08-.77,2.6-.81,15.72-4.55,1.84-.52,19.5-5.53,23.42-9.78a13.84,13.84,0,0,0,2.45-3.85,11.08,11.08,0,0,0,.7-2.79c.33-4.5-13.82-10.22-15.38-10.84-14.24-5.65-24.12-8.74-24.12-8.74-15.61-4.87-19.86-5.63-24.46-10.48a27.61,27.61,0,0,1-7.34-23.42c2.68-22.45.58-45.22,1.74-67.8.14-2.66.65-12.6,2.45-25.52.73-5.23,2.25-15.17,8-25.16,1.92-3.33,3.76-5.7,6.64-7.34,3.33-1.91,6-1.66,13.63-1.75,6.18-.07,12.35-.49,18.52-.7,6.89-.23,6.56-.34,15-.7,10.8-.45,19.63-.62,24.82-.7,12.35-.17,21.72,0,24.12,0,15,.24,17.42.76,29,1,28.94.73,34.31-2,53.12-1.4,7.7.24,15.37-1.42,23.07-1.4a9.4,9.4,0,0,0,3.84-.69c4.1-1.72,6-6.17,7-9.09,2.9-8.29,2.77-15.13,4.2-31.81.64-7.54-1.26-15.25,0-22.72.11-.67.5-2.81-.7-4.19-1.34-1.54-4-1.31-6.29-1-6.77.75-11.69,1.77-13.63,2.1-5.24.89-8.63.18-13.63-.35-13.39-1.42-22.18.16-46.49-.35-25.46-.53-21.33-2.38-42.64-2.45-17,0-32.42,1.08-41.59,1.75-9.74.71-17.88,1.52-23.76,2.15a121.24,121.24,0,0,1-18.53,1.35c-4.95,0-8.32-.38-10.49-2.8-1.29-1.45-1.61-3-2.1-5.59-1.15-6.11.71-8.25,0-14-.36-2.94-.74-6.07-2.92-8.59s-5.17-3.14-14.06-4.23C260.88,82.34,255.12,81.65,252.6,82.22Z" transform="translate(-28.9 -30.93)"/><path class="cls-3" d="M265.88,79.77c1.34-1.17,1.12-2.94.9-9.47s0-5.21-.2-8c-.51-7.36-.8-11.06-3.07-12.47-1.4-.86-3.47-1-4.62-.11-1.47,1.17-1.12,3.83-.35,9.09.62,4.25,1.2,5,1.17,8.08,0,2.32-.38,2.35-.47,5.2-.15,4.11-.24,6.71,1.4,7.93A4.55,4.55,0,0,0,265.88,79.77Z" transform="translate(-28.9 -30.93)"/><path class="cls-4" d="M262,48.66c.33,2.14,10.17,2.34,15.38,2.45,9.7.2,11.06-1.12,22.37-1.75,13.34-.73,17.8.76,22-3.14,2.06-1.91,4.31-5.33,3.49-8.39-1.35-5.07-10.38-6.38-12.23-6.64C305,30,300.38,32.86,283,39.58,267.81,45.45,261.77,47,262,48.66Z" transform="translate(-28.9 -30.93)"/><path class="cls-5" d="M262,48.66c.08-.9-3.24-1.73-14.68-4.89-14.55-4-16.49-4.69-21.67-5.59-15.48-2.7-18.89-.3-20.27,1-.33.32-2.89,2.9-2.45,5.94.51,3.42,4.51,5.28,5.95,5.94,5,2.32,8.61,1.12,17.82.35,8.47-.71,7.21.15,20.27-.7C256.83,50.12,261.93,49.77,262,48.66Z" transform="translate(-28.9 -30.93)"/></svg>